<?xml version="1.0" encoding="UTF-8"?>
<svg class="svg-linkedin" width="29px" height="28px" viewBox="0 0 29 28" version="1.1" xmlns="http://www.w3.org/2000/svg" xmlns:xlink="http://www.w3.org/1999/xlink">
    <!-- Generator: Sketch 53.1 (72631) - https://sketchapp.com -->
    <title>Fill 15</title>
    <desc>Created with Sketch.</desc>
    <g id="Welcome" stroke="none" stroke-width="1" fill="none" fill-rule="evenodd">
        <g id="Desktop" transform="translate(-730.000000, -1574.000000)" fill="#231F20">
            <path d="M759,1602 L752.783308,1602 L752.783308,1591.89231 C752.783308,1589.35328 751.884103,1587.62176 749.634796,1587.62176 C747.918014,1587.62176 746.89572,1588.78919 746.444822,1589.91867 C746.28027,1590.32177 746.240104,1590.88455 746.240104,1591.44994 L746.240104,1602 L740.023412,1602 C740.023412,1602 740.10504,1584.87987 740.023412,1583.1091 L746.240104,1583.1091 L746.240104,1585.78293 C747.06675,1584.4964 748.54383,1582.6628 751.843937,1582.6628 C755.933116,1582.6628 759,1585.36412 759,1591.16855 L759,1602 Z M733.47632,1580.52819 L733.434858,1580.52819 C731.348807,1580.52819 730,1579.07806 730,1577.2654 C730,1575.41217 731.390269,1574 733.516486,1574 C735.642704,1574 736.951345,1575.41217 736.992807,1577.2654 C736.992807,1579.07806 735.642704,1580.52819 733.47632,1580.52819 L733.47632,1580.52819 Z M730.366679,1602 L736.583371,1602 L736.583371,1583.1091 L730.366679,1583.1091 L730.366679,1602 Z" id="Fill-15"></path>
        </g>
    </g>
</svg>