<svg class="svg-twitter" width="30" height="25" xmlns="http://www.w3.org/2000/svg"><path d="M26.93 6.226c.01.27.016.543.016.817 0 8.34-6.19 17.957-17.512 17.957C5.96 25 2.724 23.954 0 22.165a12.158 12.158 0 0 0 9.113-2.615c-2.693-.05-4.966-1.876-5.75-4.382a6.035 6.035 0 0 0 2.78-.109c-2.816-.58-4.938-3.13-4.938-6.188l.001-.08a6.01 6.01 0 0 0 2.787.79 6.354 6.354 0 0 1-2.737-5.253c0-1.156.303-2.24.833-3.173C5.125 4.974 9.66 7.486 14.774 7.75a6.49 6.49 0 0 1-.159-1.439C14.615 2.826 17.371 0 20.77 0c1.77 0 3.37.766 4.492 1.993A12.132 12.132 0 0 0 29.171.462a6.304 6.304 0 0 1-2.706 3.492A12.095 12.095 0 0 0 30 2.959a12.707 12.707 0 0 1-3.07 3.267" fill="#231F20" fill-rule="evenodd"/></svg>