<?xml version="1.0" encoding="utf-8"?>
<!-- Generator: Adobe Illustrator 23.0.1, SVG Export Plug-In . SVG Version: 6.00 Build 0)  -->
<svg height="28px" version="1.1" id="Layer_1" xmlns="http://www.w3.org/2000/svg" xmlns:xlink="http://www.w3.org/1999/xlink" x="0px" y="0px"
	 viewBox="0 0 22.3 29" style="enable-background:new 0 0 22.3 29;" xml:space="preserve">
<path d="M0,10.4C0,9.1,0.2,8,0.7,6.9s1-2.1,1.8-2.9s1.6-1.5,2.6-2.1s2.1-1.1,3.2-1.4S10.7,0,11.9,0c1.8,0,3.5,0.4,5.1,1.2
	s2.9,1.9,3.9,3.4s1.5,3.1,1.5,5c0,1.1-0.1,2.2-0.3,3.3s-0.6,2.1-1,3.1s-1.1,1.9-1.7,2.6c-0.7,0.7-1.5,1.3-2.5,1.8S14.6,21,13.4,21
	c-0.8,0-1.6-0.2-2.4-0.6c-0.8-0.4-1.3-0.9-1.7-1.5c-0.1,0.5-0.3,1.1-0.5,2c-0.2,0.9-0.3,1.4-0.4,1.7c-0.1,0.2-0.2,0.7-0.4,1.2
	c-0.2,0.6-0.3,1-0.5,1.2c-0.1,0.2-0.3,0.6-0.6,1.1S6.6,27,6.3,27.4c-0.3,0.4-0.7,0.9-1.1,1.5L4.9,29l-0.2-0.2
	c-0.2-1.8-0.3-2.9-0.3-3.3c0-1.1,0.1-2.3,0.4-3.6s0.6-3,1.2-5s0.8-3.2,0.9-3.5c-0.4-0.8-0.6-1.7-0.6-2.9c0-1,0.3-1.9,0.9-2.7
	s1.4-1.3,2.3-1.3c0.7,0,1.3,0.2,1.7,0.7c0.4,0.5,0.6,1.1,0.6,1.8c0,0.8-0.3,1.9-0.8,3.3c-0.5,1.5-0.8,2.5-0.8,3.3
	c0,0.7,0.3,1.3,0.8,1.8c0.5,0.5,1.2,0.7,1.9,0.7c0.6,0,1.2-0.1,1.8-0.4c0.5-0.3,1-0.7,1.4-1.2c0.4-0.5,0.7-1.1,1-1.7
	c0.3-0.6,0.5-1.2,0.7-1.9s0.3-1.3,0.3-1.9s0.1-1.2,0.1-1.7c0-2-0.6-3.6-1.9-4.7s-2.9-1.7-5-1.7c-2.3,0-4.3,0.8-5.8,2.3
	s-2.3,3.4-2.3,5.7c0,0.5,0.1,1,0.2,1.5c0.1,0.5,0.3,0.9,0.5,1.1c0.2,0.3,0.3,0.5,0.5,0.8c0.1,0.2,0.2,0.4,0.2,0.5
	c0,0.3-0.1,0.7-0.3,1.3c-0.2,0.5-0.4,0.8-0.6,0.8c0,0-0.1,0-0.3-0.1c-0.6-0.2-1.1-0.5-1.6-1c-0.5-0.5-0.8-1-1.1-1.6
	c-0.2-0.6-0.4-1.2-0.6-1.9C0.1,11.6,0,11,0,10.4z"/>
</svg>
