<svg class="svg-yelp" width="24" height="32" xmlns="http://www.w3.org/2000/svg"><path d="M8.268 20.511l-.959.418a63.921 63.921 0 0 0-3.676 1.654c-.47.257-.99.4-1.519.417a1.98 1.98 0 0 1-.182-.01C.76 22.875-.101 21.79.01 20.567v-4.17c0-1.975 1.651-3.018 3.623-2.003 1.277.64 2.664 1.224 3.676 1.655l.96.403c.637.292 1.731.778 1.731 2.03 0 1.25-1.079 1.737-1.732 2.03zm3.777 4.242c.079 1.114.182 2.654.412 4.098a3.005 3.005 0 0 1-.54 2.447 1.92 1.92 0 0 1-1.53.701 2.584 2.584 0 0 1-.835-.15l-3.665-1.28c-.776-.211-1.384-.852-1.593-1.677-.164-.956.17-1.93.873-2.544.964-1.045 1.89-2.227 2.571-3.094l.643-.81c.591-.73 1.183-1.472 2.301-1.087 1.12.385 1.286 1.595 1.286 2.324.077.275.077.632.077 1.072zm9.252-3.52a2.425 2.425 0 0 1 2.037 1.428c.25.73.119 1.541-.349 2.147l-2.2 3.124a2.187 2.187 0 0 1-1.75 1.016 2.385 2.385 0 0 1-2.063-1.569 84.23 84.23 0 0 0-1.913-3.33l-.511-.848a2.235 2.235 0 0 1-.251-2.507 1.563 1.563 0 0 1 1.362-.682c.348.012.69.063 1.027.154l.948.232c.988.244 2.35.604 3.663.836zm-5.637-2.371c-.535.031-1.05-.238-1.363-.715-.44-.862-.34-1.936.25-2.681l.513-.908c.537-.962 1.287-2.269 1.912-3.561.33-.956 1.136-1.61 2.063-1.678.708.03 1.36.435 1.75 1.087l2.2 3.34c.467.648.6 1.516.35 2.297-.38.873-1.16 1.452-2.038 1.513-1.312.247-2.675.618-3.662.893l-.95.248a4.196 4.196 0 0 1-1.025.165zm-6.467-3.8l-6.88-10.69a1.93 1.93 0 0 1-.264-.63c-.245-1.075.458-2.138 1.568-2.375L9.81.037a2.13 2.13 0 0 1 1.69.4c.485.354.781.9.81 1.488l.687 11.966a1.978 1.978 0 0 1-.967 1.806c-.965.584-2.236.299-2.837-.636z" fill="#231F20" fill-rule="evenodd"/></svg>