<svg height="28" xmlns="http://www.w3.org/2000/svg" viewBox="0 0 22.3 29"><path d="M0 10.4C0 9.1.2 8 .7 6.9s1-2.1 1.8-2.9 1.6-1.5 2.6-2.1S7.2.8 8.3.5s2.4-.5 3.6-.5c1.8 0 3.5.4 5.1 1.2s2.9 1.9 3.9 3.4 1.5 3.1 1.5 5c0 1.1-.1 2.2-.3 3.3s-.6 2.1-1 3.1-1.1 1.9-1.7 2.6c-.7.7-1.5 1.3-2.5 1.8s-2.3.6-3.5.6c-.8 0-1.6-.2-2.4-.6-.8-.4-1.3-.9-1.7-1.5-.1.5-.3 1.1-.5 2-.2.9-.3 1.4-.4 1.7-.1.2-.2.7-.4 1.2-.2.6-.3 1-.5 1.2-.1.2-.3.6-.6 1.1s-.3.9-.6 1.3-.7.9-1.1 1.5l-.3.1-.2-.2c-.2-1.8-.3-2.9-.3-3.3 0-1.1.1-2.3.4-3.6s.6-3 1.2-5 .8-3.2.9-3.5c-.4-.8-.6-1.7-.6-2.9 0-1 .3-1.9.9-2.7s1.4-1.3 2.3-1.3c.7 0 1.3.2 1.7.7.4.5.6 1.1.6 1.8 0 .8-.3 1.9-.8 3.3-.5 1.5-.8 2.5-.8 3.3 0 .7.3 1.3.8 1.8s1.2.7 1.9.7c.6 0 1.2-.1 1.8-.4.5-.3 1-.7 1.4-1.2.4-.5.7-1.1 1-1.7.3-.6.5-1.2.7-1.9s.3-1.3.3-1.9.1-1.2.1-1.7c0-2-.6-3.6-1.9-4.7s-2.9-1.7-5-1.7C9 2.9 7 3.7 5.5 5.2s-2.3 3.4-2.3 5.7c0 .5.1 1 .2 1.5s.3.9.5 1.1c.2.3.3.5.5.8.1.2.2.4.2.5 0 .3-.1.7-.3 1.3-.2.5-.4.8-.6.8 0 0-.1 0-.3-.1-.6-.2-1.1-.5-1.6-1s-.8-1-1.1-1.6c-.2-.6-.4-1.2-.6-1.9 0-.7-.1-1.3-.1-1.9z"/></svg>