<?xml version="1.0" encoding="UTF-8"?>
<svg class="svg-twitter" width="30px" height="25px" viewBox="0 0 30 25" version="1.1" xmlns="http://www.w3.org/2000/svg" xmlns:xlink="http://www.w3.org/1999/xlink">
    <!-- Generator: Sketch 53.1 (72631) - https://sketchapp.com -->
    <title>Fill 25</title>
    <desc>Created with Sketch.</desc>
    <g id="Welcome" stroke="none" stroke-width="1" fill="none" fill-rule="evenodd">
        <g id="Desktop" transform="translate(-781.000000, -1576.000000)" fill="#231F20">
            <path d="M807.929134,1582.22645 C807.940945,1582.49693 807.946194,1582.76876 807.946194,1583.04328 C807.946194,1591.38244 801.755906,1601 790.434383,1601 C786.959318,1601 783.724409,1599.95441 781,1598.16466 C781.481627,1598.22252 781.972441,1598.25213 782.468504,1598.25213 C785.351706,1598.25213 788.006562,1597.24287 790.112861,1595.55001 C787.419948,1595.50022 785.146982,1593.67413 784.362205,1591.16848 C784.738845,1591.24115 785.124672,1591.28152 785.520997,1591.28152 C786.082677,1591.28152 786.625984,1591.20347 787.143045,1591.05948 C784.326772,1590.47949 782.204724,1587.92943 782.204724,1584.87071 C782.204724,1584.84379 782.204724,1584.81823 782.206037,1584.79131 C783.035433,1585.26365 783.984252,1585.54893 784.993438,1585.58123 C783.34252,1584.44951 782.255906,1582.51712 782.255906,1580.3277 C782.255906,1579.17176 782.559055,1578.08715 783.089239,1577.15459 C786.124672,1580.97362 790.660105,1583.486 795.774278,1583.74976 C795.669291,1583.28819 795.615486,1582.80509 795.615486,1582.31123 C795.615486,1578.82592 798.371391,1576 801.770341,1576 C803.540682,1576 805.14042,1576.76569 806.262467,1577.99295 C807.665354,1577.71036 808.981627,1577.1842 810.170604,1576.46157 C809.711286,1577.93508 808.73622,1579.17176 807.464567,1579.9536 C808.709974,1579.80019 809.896325,1579.46108 811,1578.95915 C810.174541,1580.22543 809.131234,1581.33561 807.929134,1582.22645" id="Fill-25"></path>
        </g>
    </g>
</svg>