<svg class="svg-linkedin" width="29" height="28" xmlns="http://www.w3.org/2000/svg"><path d="M29 28h-6.217V17.892c0-2.539-.899-4.27-3.148-4.27-1.717 0-2.74 1.167-3.19 2.297-.165.403-.205.966-.205 1.53V28h-6.217s.082-17.12 0-18.89h6.217v2.673c.827-1.287 2.304-3.12 5.604-3.12 4.09 0 7.156 2.701 7.156 8.506V28zM3.476 6.528h-.041C1.349 6.528 0 5.078 0 3.265 0 1.412 1.39 0 3.516 0c2.127 0 3.435 1.412 3.477 3.265 0 1.813-1.35 3.263-3.517 3.263zM.366 28h6.217V9.11H.367V28z" fill="#231F20" fill-rule="evenodd"/></svg>