<?xml version="1.0" encoding="UTF-8"?>
<svg class="svg-youtube" width="31px" height="30px" viewBox="0 0 31 30" version="1.1" xmlns="http://www.w3.org/2000/svg" xmlns:xlink="http://www.w3.org/1999/xlink">
    <!-- Generator: Sketch 53.1 (72631) - https://sketchapp.com -->
    <title>Combined Shape</title>
    <desc>Created with Sketch.</desc>
    <g id="Welcome" stroke="none" stroke-width="1" fill="none" fill-rule="evenodd">
        <g id="Desktop" transform="translate(-634.000000, -1573.000000)" fill="#231F20">
            <path d="M642.484759,1585 L642.484759,1580.24566 L640,1573 L642.102065,1573 L643.456637,1577.79731 L643.587414,1577.79731 L644.878663,1573 L647,1573 L644.571681,1580.02138 L644.571681,1585 L642.484759,1585 Z M654.223003,1585 C653.815769,1585 653.51262,1584.86541 653.307052,1584.60027 C653.102784,1584.33782 653,1583.94213 653,1583.41454 L653,1576 L654.748634,1576 L654.748634,1582.80081 C654.748634,1583.00942 654.788967,1583.16151 654.863128,1583.25437 C654.933385,1583.34993 655.054385,1583.39704 655.218319,1583.39704 C655.347125,1583.39704 655.509758,1583.33513 655.70752,1583.20996 C655.903981,1583.08479 656.08483,1582.92732 656.246162,1582.73351 L656.246162,1576 L658,1576 L658,1584.87079 L656.246162,1584.87079 L656.246162,1583.88829 C655.926099,1584.25034 655.590424,1584.52624 655.239136,1584.71602 C654.89045,1584.9031 654.552173,1585 654.223003,1585 Z M652.5005,1593 C652.6615,1593 652.7865,1593.07348 652.8735,1593.21903 C652.9585,1593.3674 652.9995,1593.5822 652.9995,1593.86905 L652.9995,1598.23693 C652.9995,1598.50683 652.9635,1598.69901 652.8955,1598.81771 C652.8265,1598.93924 652.7195,1599 652.5725,1599 C652.4715,1599 652.3765,1598.96609 652.2845,1598.90815 C652.1915,1598.8488 652.0965,1598.74282 652.0005,1598.60716 L652.0005,1593.34056 C652.0825,1593.22468 652.1635,1593.13566 652.2475,1593.08196 C652.3305,1593.02544 652.4155,1593 652.5005,1593 Z M648.77246,1578.10962 L648.77246,1582.7773 C648.77246,1583.01256 648.833888,1583.19324 648.955465,1583.32192 C649.078321,1583.45321 649.253647,1583.5156 649.481444,1583.5156 C649.714359,1583.5156 649.899923,1583.45061 650.038137,1583.31932 C650.17507,1583.18804 650.244177,1583.00607 650.244177,1582.7773 L650.244177,1578.10962 C650.244177,1577.92374 650.173791,1577.77296 650.034297,1577.65598 C649.893524,1577.54029 649.70924,1577.4844 649.481444,1577.4844 C649.271564,1577.4844 649.101357,1577.54029 648.968262,1577.65598 C648.837727,1577.77296 648.77246,1577.92374 648.77246,1578.10962 Z M649.486563,1585 C648.732787,1585 648.128743,1584.78293 647.67699,1584.35269 C647.225237,1583.92114 647,1583.34402 647,1582.61612 L647,1578.17461 C647,1577.5091 647.230356,1576.98267 647.693627,1576.59012 C648.158178,1576.19627 648.781418,1576 649.564628,1576 C650.27873,1576 650.862298,1576.20797 651.319171,1576.62002 C651.772204,1577.03466 652,1577.57149 652,1578.224 L652,1582.64991 C652,1583.38302 651.777323,1583.95494 651.331968,1584.37348 C650.884054,1584.79073 650.269772,1585 649.486563,1585 Z M657.504257,1593 C657.676443,1593 657.804163,1593.08263 657.880795,1593.25402 C657.959319,1593.41469 658,1593.69013 658,1594.07422 L658,1595 L657,1595 L657,1594.07422 C657,1593.69013 657.036897,1593.41469 657.117313,1593.25402 C657.195837,1593.08263 657.323557,1593 657.504257,1593 Z M660.09277,1595.96523 L660.09277,1593.94888 C660.09277,1593.19969 659.899996,1592.62623 659.515758,1592.22587 C659.128897,1591.82682 658.578112,1591.62598 657.85947,1591.62598 C657.156563,1591.62598 656.587419,1591.84136 656.142857,1592.27343 C655.698295,1592.70419 655.475359,1593.26575 655.475359,1593.94888 L655.475359,1597.50062 C655.475359,1598.26303 655.679936,1598.86159 656.081222,1599.29367 C656.485131,1599.72838 657.038538,1599.94376 657.741444,1599.94376 C658.523034,1599.94376 659.110538,1599.74028 659.501333,1599.33331 C659.897373,1598.92105 660.09277,1598.3106 660.09277,1597.50062 L660.09277,1597.09497 L658.479758,1597.09497 L658.479758,1597.45437 C658.479758,1597.9208 658.42468,1598.21942 658.322391,1598.35684 C658.218791,1598.49294 658.037819,1598.56165 657.776852,1598.56165 C657.527687,1598.56165 657.350649,1598.48237 657.245738,1598.32117 C657.142138,1598.15996 657.092305,1597.87059 657.092305,1597.45437 L657.092305,1595.96523 L660.09277,1595.96523 Z M654.654427,1598.09654 L654.654427,1593.7084 C654.654427,1593.06095 654.523288,1592.56809 654.261009,1592.23115 C654.000042,1591.89289 653.62105,1591.7264 653.124032,1591.7264 C652.880113,1591.7264 652.640129,1591.7885 652.400144,1591.91535 C652.165405,1592.03956 651.941157,1592.22454 651.728711,1592.4637 L651.728711,1589.01239 L650.143238,1589.01239 L650.143238,1599.72838 L651.728711,1599.72838 L651.728711,1599.12321 C651.933288,1599.36634 652.158848,1599.5434 652.398832,1599.65835 C652.637506,1599.77331 652.910275,1599.83013 653.219764,1599.83013 C653.683997,1599.83013 654.040695,1599.68214 654.284614,1599.38352 C654.531156,1599.08357 654.654427,1598.65414 654.654427,1598.09654 Z M648.964296,1599.72838 L648.964296,1591.82286 L647.395871,1591.82286 L647.395871,1597.82831 C647.248995,1598.00008 647.087694,1598.14014 646.909345,1598.25246 C646.732307,1598.36345 646.585431,1598.41762 646.472651,1598.41762 C646.324464,1598.41762 646.218241,1598.37798 646.150049,1598.2921 C646.087102,1598.20885 646.053006,1598.07408 646.053006,1597.88777 L646.053006,1591.82286 L644.484581,1591.82286 L644.484581,1598.43216 C644.484581,1598.90519 644.577689,1599.25535 644.759973,1599.49187 C644.946191,1599.72838 645.216337,1599.84598 645.579593,1599.84598 C645.874656,1599.84598 646.177588,1599.76406 646.491011,1599.59229 C646.805745,1599.42712 647.104742,1599.18267 647.395871,1598.86159 L647.395871,1599.72838 L648.964296,1599.72838 Z M643.7961,1590.57024 L643.7961,1589.01239 L638.372182,1589.01239 L638.372182,1590.57024 L640.200262,1590.57024 L640.200262,1599.72838 L641.968019,1599.72838 L641.968019,1590.57024 L643.7961,1590.57024 Z M659.337409,1587 C662.465079,1587 665,1589.55678 665,1592.70815 L665,1597.29317 C665,1600.44455 662.465079,1603 659.337409,1603 L639.662591,1603 C636.534921,1603 634,1600.44455 634,1597.29317 L634,1592.70815 C634,1589.55678 636.534921,1587 639.662591,1587 L659.337409,1587 Z" id="Combined-Shape"></path>
        </g>
    </g>
</svg>