<svg xmlns="http://www.w3.org/2000/svg" width="260" height="158" viewBox="0 0 260 158"><g><g clip-path="url(#clip-0C23ED68-3873-420D-BEA5-70FD5BB4FA15)" opacity=".11"><path fill="#9a9b9b" d="M202.167 149.343c-26.558 0-47.348-20.163-49.446-47.942v-.02C148.067 40.11 185.849.296 197.275-10.243c1.11 1.07 2.377 2.312 4.258 4.145 2.256 2.215 5.343 5.25 10.017 9.776-17.88 26.538-14.493 45.44-13.028 48.153a4.218 4.218 0 0 0 3.645 2.16c27.268 0 49.446 21.386 49.446 47.674 0 26.293-22.178 47.678-49.446 47.678zm3.351-103.086c-.537-5.44-.122-20.257 14.596-40.862 1.11-1.545.908-3.647-.477-4.981a1446.565 1446.565 0 0 1-12.32-11.996c-3.421-3.359-4.988-4.889-7.285-6.893a4.169 4.169 0 0 0-5.389-.054C169 2.99 140.503 47.48 144.62 101.961c2.418 32.004 26.617 55.223 57.553 55.223 31.742 0 57.568-24.901 57.568-55.512 0-29.521-24.041-53.733-54.222-55.415z"/></g><g clip-path="url(#clip-0C23ED68-3873-420D-BEA5-70FD5BB4FA15)" opacity=".11"><path fill="#9a9b9b" d="M57.957 149.343c-26.554 0-47.36-20.163-49.458-47.962v.02C3.867 40.09 41.642.296 53.046-10.243c1.13 1.07 2.397 2.312 4.277 4.16 2.256 2.22 5.322 5.255 9.995 9.761-17.856 26.538-14.49 45.44-13.005 48.153.694 1.3 2.139 2.16 3.644 2.16 27.258 0 49.438 21.386 49.438 47.674 0 26.293-22.18 47.678-49.438 47.678zm3.33-103.086c-.517-5.421-.142-20.218 14.594-40.862 1.11-1.545.907-3.647-.477-4.981-5.981-5.768-9.681-9.415-12.297-11.977-3.427-3.378-5.008-4.908-7.284-6.912a4.167 4.167 0 0 0-5.388-.054C24.775 2.99-3.717 47.465.399 101.961c2.438 32.004 26.632 55.223 57.563 55.223 31.737 0 57.558-24.901 57.558-55.512 0-29.521-24.037-53.733-54.233-55.415z"/></g></g></svg>