<?xml version="1.0" encoding="utf-8"?>
<!-- Generator: Adobe Illustrator 23.0.3, SVG Export Plug-In . SVG Version: 6.00 Build 0)  -->
<svg class="icon-play" version="1.1" id="Layer_1" xmlns="http://www.w3.org/2000/svg" xmlns:xlink="http://www.w3.org/1999/xlink" x="0px" y="0px"
     viewBox="0 0 63 62" style="enable-background:new 0 0 63 62;" xml:space="preserve">
<style type="text/css">
	.icon-play-st0{clip-path:url(#SVGID_2_);fill:none;stroke:#FFFFFF;stroke-width:4;stroke-miterlimit:50;}
	.icon-play-st1{fill:#FFFFFF;}
	.icon-play-st2{clip-path:url(#SVGID_4_);}
</style>
    <g>
	<g>
		<g>
			<g>
				<g>
					<defs>
						<ellipse id="SVGID_1_" cx="31.5" cy="31" rx="30.9" ry="31"/>
					</defs>
                    <clipPath id="SVGID_2_">
						<use xlink:href="#SVGID_1_" style="overflow:visible;"/>
					</clipPath>
                    <path class="icon-play-st0" d="M31.5,62c17.1,0,30.9-13.9,30.9-31S48.6,0,31.5,0S0.6,13.9,0.6,31S14.4,62,31.5,62z"/>
				</g>
			</g>
            <g>
				<g>
					<g>
						<path class="icon-play-st1" d="M26.1,18c0.1,0,0.3,0,0.4,0.1s0.3,0.1,0.4,0.2l18,11c0.2,0.1,0.4,0.3,0.5,0.6c0.1,0.2,0.2,0.5,0.2,0.8
							c0,0.3-0.1,0.5-0.2,0.8c-0.1,0.2-0.3,0.4-0.5,0.6l-18,11c-0.1,0.1-0.3,0.1-0.4,0.2c-0.1,0-0.3,0.1-0.4,0.1c-0.1,0-0.3,0-0.4,0
							c-0.1,0-0.3-0.1-0.4-0.1c-0.3-0.1-0.5-0.3-0.6-0.6c-0.1-0.2-0.2-0.5-0.2-0.8l0-21.9c0-0.3,0.1-0.5,0.2-0.8
							c0.1-0.2,0.3-0.5,0.6-0.6c0.1-0.1,0.2-0.1,0.4-0.1C25.9,18,26,18,26.1,18z M26.1,19.6l0,21.9l18-11L26.1,19.6z"/>
					</g>
                    <g>
						<defs>
							<path id="SVGID_3_" d="M26.1,18c0.1,0,0.3,0,0.4,0.1s0.3,0.1,0.4,0.2l18,11c0.2,0.1,0.4,0.3,0.5,0.6c0.1,0.2,0.2,0.5,0.2,0.8
								c0,0.3-0.1,0.5-0.2,0.8c-0.1,0.2-0.3,0.4-0.5,0.6l-18,11c-0.1,0.1-0.3,0.1-0.4,0.2c-0.1,0-0.3,0.1-0.4,0.1
								c-0.1,0-0.3,0-0.4,0c-0.1,0-0.3-0.1-0.4-0.1c-0.3-0.1-0.5-0.3-0.6-0.6c-0.1-0.2-0.2-0.5-0.2-0.8l0-21.9
								c0-0.3,0.1-0.5,0.2-0.8c0.1-0.2,0.3-0.5,0.6-0.6c0.1-0.1,0.2-0.1,0.4-0.1C25.9,18,26,18,26.1,18z M26.1,19.6l0,21.9l18-11
								L26.1,19.6z"/>
						</defs>
                        <clipPath id="SVGID_4_">
							<use xlink:href="#SVGID_3_" style="overflow:visible;"/>
						</clipPath>
                        <g class="icon-play-st2">
							<path class="icon-play-st1" d="M24.5,18h21.9v25.1H24.5V18z"/>
						</g>
					</g>
				</g>
			</g>
		</g>
	</g>
</g>
</svg>
