<svg xmlns="http://www.w3.org/2000/svg" width="35" height="64"><defs><clipPath id="a"><path d="M32.188 0c.291 0 .562.052.812.156.25.104.48.26.688.469.416.417.624.927.624 1.531 0 .604-.208 1.115-.624 1.531l-28.5 28.5 28.125 28.126c.416.416.624.916.624 1.5 0 .583-.208 1.083-.624 1.5a2.082 2.082 0 0 1-1.532.624 2.082 2.082 0 0 1-1.531-.624L.625 33.686a2.046 2.046 0 0 1-.625-1.5c0-.583.208-1.083.625-1.5L30.688.625a2.04 2.04 0 0 1 .718-.469A2.18 2.18 0 0 1 32.188 0z"/></clipPath></defs><g opacity=".4"><path fill="#9a9b9b" d="M3.812 0C3.521 0 3.25.052 3 .156c-.25.104-.48.26-.688.469a2.084 2.084 0 0 0-.624 1.531c0 .604.208 1.115.624 1.531l28.5 28.5L2.687 60.313a2.045 2.045 0 0 0-.624 1.5c0 .583.208 1.083.624 1.5a2.082 2.082 0 0 0 1.532.624 2.082 2.082 0 0 0 1.531-.624l29.625-29.627a2.046 2.046 0 0 0 .625-1.5c0-.583-.208-1.083-.625-1.5L5.312.625a2.04 2.04 0 0 0-.718-.469A2.18 2.18 0 0 0 3.812 0z" opacity=".4"/><g clip-path="url(#a)" opacity=".4" transform="matrix(-1 0 0 1 36 0)"><path fill="#9a9b9b" d="M-15 0h64v64h-64z"/></g></g></svg>