<svg xmlns="http://www.w3.org/2000/svg" width="20" height="20"><path fill="#fff" d="M3.992 1.711a.531.531 0 0 1 .146-.02h.04c.377.548.77 1.134 1.18 1.759.411.625.844 1.295 1.3 2.011 0 .052-.01.111-.03.176-.02.065-.048.137-.088.215l-.332.596c-.156.28-.358.648-.605 1.103l-.39.684.468.605c.287.417.651.876 1.094 1.377a43.63 43.63 0 0 0 1.543 1.65 41.44 41.44 0 0 0 1.65 1.573c.502.45.96.817 1.377 1.103l.645.43.644-.39 1.113-.606c.287-.156.482-.267.586-.332.079-.04.15-.068.215-.088a.619.619 0 0 1 .176-.03c.508.326 1.078.697 1.709 1.114.632.417 1.325.892 2.08 1.426a.21.21 0 0 1 0 .127.462.462 0 0 1-.078.146c-.195.26-.397.518-.605.772-.209.254-.43.498-.665.732-.234.235-.436.423-.605.567-.17.143-.3.234-.39.273-.587-.039-1.215-.182-1.885-.43-.671-.247-1.38-.605-2.13-1.074a21.701 21.701 0 0 1-2.363-1.738 39.676 39.676 0 0 1-2.607-2.402 39.676 39.676 0 0 1-2.402-2.608A21.702 21.702 0 0 1 3.044 8.07c-.468-.749-.826-1.455-1.074-2.12-.247-.663-.384-1.288-.41-1.874.04-.117.127-.26.264-.43.136-.17.322-.371.556-.605.235-.235.476-.46.723-.674.247-.215.501-.414.762-.596a.45.45 0 0 1 .127-.059zM4.695.627A1.37 1.37 0 0 0 4.138.52c-.182 0-.351.023-.508.068-.156.046-.306.12-.449.225-.104.078-.228.17-.371.273l-.45.332c-.168.13-.357.297-.566.498a16.62 16.62 0 0 0-.703.733c-.26.286-.455.544-.586.771-.13.228-.195.433-.195.616.026.664.17 1.37.43 2.119.26.748.641 1.533 1.142 2.353.502.82 1.12 1.68 1.856 2.578A38.58 38.58 0 0 0 6.306 13.9a43.3 43.3 0 0 0 2.813 2.559c.898.742 1.757 1.36 2.578 1.855.82.495 1.601.876 2.343 1.143.743.266 1.452.413 2.13.439h.038c.17 0 .368-.065.596-.195.228-.13.479-.326.752-.586.287-.26.534-.498.742-.713.209-.215.378-.407.508-.576.143-.17.267-.32.371-.45.104-.13.182-.24.235-.332.13-.195.22-.387.273-.576.052-.189.072-.374.059-.556a1.422 1.422 0 0 0-.157-.47 1.017 1.017 0 0 0-.312-.35c-.742-.522-1.439-1-2.09-1.436a44.24 44.24 0 0 0-1.855-1.182 1.184 1.184 0 0 0-.606-.156 1.73 1.73 0 0 0-.459.068 2.04 2.04 0 0 0-.478.205c-.13.065-.342.18-.635.342-.293.163-.661.374-1.104.635a16.695 16.695 0 0 1-1.279-1.045c-.475-.423-1-.921-1.572-1.494a33.5 33.5 0 0 1-1.475-1.563 15.47 15.47 0 0 1-1.045-1.308l.606-1.114c.156-.286.267-.494.332-.625.169-.299.263-.579.283-.84.02-.26-.036-.494-.166-.703-.508-.794-.98-1.516-1.416-2.168A65.924 65.924 0 0 0 5.115.97a1.052 1.052 0 0 0-.42-.342z"/></svg>