<svg class="icon-play" version="1.1" id="Layer_1" xmlns="http://www.w3.org/2000/svg" xmlns:xlink="http://www.w3.org/1999/xlink" x="0" y="0" viewBox="0 0 63 62" xml:space="preserve"><style>.icon-play-st1{fill:#fff}</style><defs><ellipse id="SVGID_1_" cx="31.5" cy="31" rx="30.9" ry="31"/></defs><clipPath id="SVGID_2_"><use xlink:href="#SVGID_1_" overflow="visible"/></clipPath><path d="M31.5 62c17.1 0 30.9-13.9 30.9-31S48.6 0 31.5 0 .6 13.9.6 31s13.8 31 30.9 31z" clip-path="url(#SVGID_2_)" fill="none" stroke="#fff" stroke-width="4" stroke-miterlimit="50"/><path class="icon-play-st1" d="M26.1 18c.1 0 .3 0 .4.1s.3.1.4.2l18 11c.2.1.4.3.5.6.1.2.2.5.2.8 0 .3-.1.5-.2.8-.1.2-.3.4-.5.6l-18 11c-.1.1-.3.1-.4.2-.1 0-.3.1-.4.1h-.4c-.1 0-.3-.1-.4-.1-.3-.1-.5-.3-.6-.6-.1-.2-.2-.5-.2-.8V20c0-.3.1-.5.2-.8.1-.2.3-.5.6-.6.1-.1.2-.1.4-.1.2-.5.3-.5.4-.5zm0 1.6v21.9l18-11-18-10.9z"/><defs><path id="SVGID_3_" d="M26.1 18c.1 0 .3 0 .4.1s.3.1.4.2l18 11c.2.1.4.3.5.6.1.2.2.5.2.8 0 .3-.1.5-.2.8-.1.2-.3.4-.5.6l-18 11c-.1.1-.3.1-.4.2-.1 0-.3.1-.4.1h-.4c-.1 0-.3-.1-.4-.1-.3-.1-.5-.3-.6-.6-.1-.2-.2-.5-.2-.8V20c0-.3.1-.5.2-.8.1-.2.3-.5.6-.6.1-.1.2-.1.4-.1.2-.5.3-.5.4-.5zm0 1.6v21.9l18-11-18-10.9z"/></defs><clipPath id="SVGID_4_"><use xlink:href="#SVGID_3_" overflow="visible"/></clipPath><g clip-path="url(#SVGID_4_)"><path class="icon-play-st1" d="M24.5 18h21.9v25.1H24.5V18z"/></g></svg>