<svg xmlns="http://www.w3.org/2000/svg" width="25" height="25"><path fill="#fff" d="M15.544 21.159H8.641a.6.6 0 0 1 0-1.199h6.903a.6.6 0 1 1 0 1.199m0-2H8.641a.6.6 0 0 1 0-1.199h6.903a.6.6 0 1 1 0 1.199m2.055-10.97H6.61a.6.6 0 1 1 0-1.199h10.989a.599.599 0 1 1 0 1.199"/><path fill="#fff" d="M21.592 15.114H2.591C1.162 15.114 0 13.938 0 12.492v-6.91C0 4.135 1.162 2.96 2.591 2.96h4.02a.6.6 0 1 1 0 1.199h-4.02c-.767 0-1.391.639-1.391 1.423v6.91c0 .784.624 1.423 1.391 1.423h19.001c.767 0 1.39-.639 1.39-1.423v-6.91c0-.784-.623-1.423-1.39-1.423H17.6a.6.6 0 1 1 0-1.199h3.992c1.428 0 2.59 1.175 2.59 2.622v6.91c0 1.446-1.162 2.622-2.59 2.622m-4.475 9.035H7.093c-.597 0-1.083-.499-1.083-1.112V16.65a.6.6 0 0 1 1.2 0v6.3h9.789v-6.3a.6.6 0 0 1 1.201 0v6.387c0 .613-.486 1.112-1.083 1.112"/><path fill="#fff" d="M17.599 8.193a.6.6 0 0 1-.6-.6V3.738l-2.095-2.539H7.21v6.394a.6.6 0 0 1-1.2 0V1.111C6.01.498 6.508 0 7.12 0h7.83c.294 0 .57.113.779.318l2.183 2.677c.166.158.287.447.287.743v3.855a.6.6 0 0 1-.6.6m2.981 3.969c-.16 0-.31-.07-.43-.181a.586.586 0 0 1-.17-.42.579.579 0 0 1 .17-.429c.17-.16.43-.22.66-.13.07.03.14.08.19.13.06.059.1.12.13.2.03.069.05.149.05.229 0 .161-.06.311-.18.42a.476.476 0 0 1-.19.13.637.637 0 0 1-.23.051"/></svg>