<svg xmlns="http://www.w3.org/2000/svg" width="35" height="64"><defs><clipPath id="a"><path d="M32.188 0c.291 0 .562.052.812.156.25.104.48.26.688.469.416.417.624.927.624 1.531 0 .604-.208 1.115-.624 1.531l-28.5 28.5 28.125 28.126c.416.416.624.916.624 1.5 0 .583-.208 1.083-.624 1.5a2.082 2.082 0 0 1-1.532.624 2.082 2.082 0 0 1-1.531-.624L.625 33.686a2.046 2.046 0 0 1-.625-1.5c0-.583.208-1.083.625-1.5L30.688.625a2.04 2.04 0 0 1 .718-.469A2.18 2.18 0 0 1 32.188 0z"/></clipPath></defs><g opacity=".4"><path fill="#9a9b9b" d="M32.188 0c.291 0 .562.052.812.156.25.104.48.26.688.469.416.417.624.927.624 1.531 0 .604-.208 1.115-.624 1.531l-28.5 28.5 28.125 28.126c.416.416.624.916.624 1.5 0 .583-.208 1.083-.624 1.5a2.082 2.082 0 0 1-1.532.624 2.082 2.082 0 0 1-1.531-.624L.625 33.686a2.046 2.046 0 0 1-.625-1.5c0-.583.208-1.083.625-1.5L30.688.625a2.04 2.04 0 0 1 .718-.469A2.18 2.18 0 0 1 32.188 0z" opacity=".4"/><g clip-path="url(#a)" opacity=".4"><path fill="#9a9b9b" d="M-15 0h64v64h-64z"/></g></g></svg>