<svg xmlns="http://www.w3.org/2000/svg" width="20" height="15" viewBox="0 0 20 15"><g><g><g><path fill="#fff" d="M2.188 12.88c-.17 0-.368-.114-.596-.342-.228-.228-.342-.426-.342-.595V2.997l8.34 6.66c.065.052.13.091.195.118.065.026.137.039.215.039.078 0 .15-.013.215-.04a.777.777 0 0 0 .195-.117l8.34-6.66v8.945c0 .17-.01.368-.03.596-.019.228-.113.342-.282.342zm16.25-11.25L10 8.368 1.582 1.65c.104-.013.208-.02.313-.02zm1.552-.03a.489.489 0 0 0-.049-.165c-.078-.352-.244-.616-.498-.791C19.19.468 18.854.38 18.438.38H2.188a3.07 3.07 0 0 0-1.104.205C.726.722.449.92.254 1.181a.147.147 0 0 0-.059.049.32.32 0 0 1-.039.048.706.706 0 0 0-.136.245.455.455 0 0 0 0 .263.173.173 0 0 0-.02.078v10.079c0 .52.234 1.015.703 1.484.469.469.964.703 1.485.703h16.25c.52 0 .911-.234 1.171-.703s.391-.964.391-1.484V1.864a.173.173 0 0 0-.02-.078.604.604 0 0 0 .01-.185z"/></g></g></g></svg>