<svg xmlns="http://www.w3.org/2000/svg" width="35" height="64" viewBox="0 0 35 64"><defs><clipPath id="dzyka"><path d="M32.188 0c.291 0 .562.052.812.156.25.104.48.26.688.469.416.417.624.927.624 1.531 0 .604-.208 1.115-.624 1.531l-28.5 28.5 28.125 28.126c.416.416.624.916.624 1.5 0 .583-.208 1.083-.624 1.5a2.082 2.082 0 0 1-1.532.624 2.082 2.082 0 0 1-1.531-.624L.625 33.686a2.046 2.046 0 0 1-.625-1.5c0-.583.208-1.083.625-1.5L30.688.625c.208-.208.447-.365.718-.469.271-.104.532-.156.782-.156z"/></clipPath></defs><g><g><g opacity=".4" transform="matrix(-1 0 0 1 36 0)"><g opacity=".4"><path fill="#9a9b9b" d="M32.188 0c.291 0 .562.052.812.156.25.104.48.26.688.469.416.417.624.927.624 1.531 0 .604-.208 1.115-.624 1.531l-28.5 28.5 28.125 28.126c.416.416.624.916.624 1.5 0 .583-.208 1.083-.624 1.5a2.082 2.082 0 0 1-1.532.624 2.082 2.082 0 0 1-1.531-.624L.625 33.686a2.046 2.046 0 0 1-.625-1.5c0-.583.208-1.083.625-1.5L30.688.625c.208-.208.447-.365.718-.469.271-.104.532-.156.782-.156z"/></g><g clip-path="url(#dzyka)" opacity=".4"><path fill="#9a9b9b" d="M-15 0h64v64h-64z"/></g></g></g></g></svg>