<svg id="creative-icon" xmlns="http://www.w3.org/2000/svg" width="67" height="60.467" viewBox="0 0 67 60.467">
  <circle id="XMLID_683_" cx="0.912" cy="0.912" r="0.912" transform="translate(38.438 1.367)" fill="rgba(112,112,112,0.51)"/>
  <circle id="XMLID_681_" cx="1.063" cy="1.063" r="1.063" transform="translate(32.209 9.268)" fill="rgba(112,112,112,0.51)"/>
  <circle id="XMLID_680_" cx="1.671" cy="1.671" r="1.671" transform="translate(21.726)" fill="rgba(112,112,112,0.51)"/>
  <circle id="XMLID_679_" cx="2.279" cy="2.279" r="2.279" transform="translate(50.44)" fill="rgba(112,112,112,0.51)"/>
  <g id="XMLID_631_" transform="translate(3.494 13.825)">
    <path id="Path_95" data-name="Path 95" d="M63.878,24.635V62.161a5.7,5.7,0,0,1,1.671-.152h.608V24.635A2.723,2.723,0,0,0,63.422,21.9H26.2v2.279H63.422C63.574,24.331,63.878,24.331,63.878,24.635Z" transform="translate(-5.082 -21.9)" fill="rgba(112,112,112,0.51)"/>
    <path id="Path_96" data-name="Path 96" d="M13.363,62.313a4.206,4.206,0,0,1,1.367.152V24.483a.327.327,0,0,1,.3-.3h2.583V21.9H15.035A2.723,2.723,0,0,0,12.3,24.635V62.617A1.638,1.638,0,0,1,13.363,62.313Z" transform="translate(-12.3 -21.9)" fill="rgba(112,112,112,0.51)"/>
  </g>
  <g id="XMLID_644_" transform="translate(5.773 35.399)">
    <path id="Path_97" data-name="Path 97" d="M68.646,47.8,46.312,36.1l-1.823.608a1.525,1.525,0,0,1-1.215,2.279,1.242,1.242,0,0,1-1.367-1.215L14.863,47.8H13.8v2.431h1.519L46.312,38.835,68.19,50.229h2.431V47.8Z" transform="translate(-13.8 -36.1)" fill="rgba(112,112,112,0.51)"/>
  </g>
  <g id="Group_57" data-name="Group 57" transform="translate(37.916 27.469)">
    <rect id="Rectangle_38" data-name="Rectangle 38" width="5.014" height="2.279" transform="matrix(0.613, -0.79, 0.79, 0.613, 2.982, 5.503)" fill="rgba(112,112,112,0.51)"/>
    <rect id="Rectangle_39" data-name="Rectangle 39" width="4.862" height="2.279" transform="matrix(0.929, -0.369, 0.369, 0.929, 5.293, 7.559)" fill="rgba(112,112,112,0.51)"/>
    <rect id="Rectangle_40" data-name="Rectangle 40" width="4.862" height="2.279" transform="matrix(0.157, -0.988, 0.988, 0.157, 0, 4.801)" fill="rgba(112,112,112,0.51)"/>
  </g>
  <g id="Group_58" data-name="Group 58" transform="translate(30.605 40.358)">
    <rect id="Rectangle_41" data-name="Rectangle 41" width="5.014" height="2.279" transform="translate(4.961 6.494) rotate(-82.935)" fill="rgba(112,112,112,0.51)"/>
    <rect id="Rectangle_42" data-name="Rectangle 42" width="4.862" height="2.279" transform="translate(0 3.94) rotate(-54.134)" fill="rgba(112,112,112,0.51)"/>
    <rect id="Rectangle_43" data-name="Rectangle 43" width="2.279" height="5.014" transform="translate(8.582 1.791) rotate(-23.892)" fill="rgba(112,112,112,0.51)"/>
  </g>
  <path id="Path_98" data-name="Path 98" d="M47.115,48l-1.063,1.519H39.974L38.91,48H10.5l.76,3.646a3.914,3.914,0,0,0,3.8,3.342H72.031a4.132,4.132,0,0,0,4.254-3.494L76.74,48H47.115Zm27.043,3.039a2.146,2.146,0,0,1-2.127,1.519H15.058a1.78,1.78,0,0,1-1.671-1.367l-.152-1.063H37.7l1.063,1.519h8.508l1.063-1.519H74.158Z" transform="translate(-9.74 5.478)" fill="rgba(112,112,112,0.51)"/>
  <path id="Path_99" data-name="Path 99" d="M49.2,50.478a11.236,11.236,0,0,1-3.039-4.406V44.857c0-1.215,0-3.039-1.367-4.254a7.087,7.087,0,0,0-3.039-1.823L16.837,15.687A14.535,14.535,0,0,0,11.671,12.8h-.3A1.241,1.241,0,0,0,10,14.015v.152l.152.152a21.36,21.36,0,0,0,2.583,4.71L35.98,44.4A7.087,7.087,0,0,0,37.8,47.439C38.866,48.5,43.272,52.6,46.918,52.6A4.287,4.287,0,0,0,49.2,52l1.215-.76Zm-35.7-34.639c4.558,3.95,17.32,15.345,17.32,15.345l-2.583,2.431S16.989,20.852,13.19,16.142C13.039,15.839,13.342,15.687,13.494,15.839ZM32.333,32.7l6.837,6.837L36.587,41.97l-6.837-6.685Zm6.989,13.37a4.582,4.582,0,0,1-1.367-2.279l2.887-2.887a4.031,4.031,0,0,1,2.279,1.367,3.667,3.667,0,0,1,.608,2.583,5.7,5.7,0,0,0,.152,1.671,9.332,9.332,0,0,0,2.279,3.95C44.184,50.174,41.3,48.047,39.322,46.072Z" transform="translate(-10 -12.8)" fill="rgba(112,112,112,0.51)"/>
</svg>
