<svg xmlns="http://www.w3.org/2000/svg" width="67" height="60.467"><circle cx=".912" cy=".912" r=".912" transform="translate(38.438 1.367)" fill="rgba(112,112,112,0.51)"/><circle cx="1.063" cy="1.063" r="1.063" transform="translate(32.209 9.268)" fill="rgba(112,112,112,0.51)"/><circle cx="1.671" cy="1.671" r="1.671" transform="translate(21.726)" fill="rgba(112,112,112,0.51)"/><circle cx="2.279" cy="2.279" r="2.279" transform="translate(50.44)" fill="rgba(112,112,112,0.51)"/><g fill="rgba(112,112,112,0.51)"><path data-name="Path 95" d="M62.29 16.56v37.526a5.7 5.7 0 0 1 1.671-.152h.608V16.56a2.723 2.723 0 0 0-2.735-2.735H24.612v2.279h37.222c.152.152.456.152.456.456z"/><path data-name="Path 96" d="M4.557 54.238a4.206 4.206 0 0 1 1.367.152V16.408a.327.327 0 0 1 .3-.3h2.583v-2.283H6.229a2.723 2.723 0 0 0-2.735 2.735v37.982a1.638 1.638 0 0 1 1.063-.304z"/></g><path data-name="Path 97" d="M60.619 47.099l-22.334-11.7-1.823.608a1.525 1.525 0 0 1-1.215 2.279 1.242 1.242 0 0 1-1.367-1.215L6.836 47.099H5.773v2.431h1.519l30.993-11.396 21.878 11.394h2.431v-2.429z" fill="rgba(112,112,112,0.51)"/><g data-name="Group 57" fill="rgba(112,112,112,0.51)"><path data-name="Rectangle 38" d="M40.898 32.972l3.074-3.961 1.8 1.397-3.074 3.961z"/><path data-name="Rectangle 39" d="M43.209 35.028l4.517-1.794.84 2.117-4.516 1.794z"/><path data-name="Rectangle 40" d="M37.916 32.27l.763-4.804 2.252.358-.763 4.804z"/></g><g data-name="Group 58" fill="rgba(112,112,112,0.51)"><path data-name="Rectangle 41" d="M35.566 46.852l.617-4.976 2.261.28-.616 4.976z"/><path data-name="Rectangle 42" d="M30.605 44.298l2.849-3.94 1.846 1.335-2.848 3.94z"/><path data-name="Rectangle 43" d="M39.187 42.149l2.084-.923 2.03 4.584-2.083.923z"/></g><path data-name="Path 98" d="M37.375 53.478l-1.063 1.519h-6.078l-1.064-1.519H.76l.76 3.646a3.914 3.914 0 0 0 3.8 3.342h56.971a4.132 4.132 0 0 0 4.254-3.494L67 53.478H37.375zm27.043 3.039a2.146 2.146 0 0 1-2.127 1.519H5.318a1.78 1.78 0 0 1-1.671-1.367l-.152-1.063H27.96l1.063 1.519h8.508l1.063-1.519h25.824z" fill="rgba(112,112,112,0.51)"/><path data-name="Path 99" d="M39.2 37.678a11.236 11.236 0 0 1-3.039-4.406v-1.215c0-1.215 0-3.039-1.367-4.254a7.087 7.087 0 0 0-3.039-1.823L6.837 2.887A14.535 14.535 0 0 0 1.671 0h-.3A1.241 1.241 0 0 0 0 1.215v.152l.152.152a21.36 21.36 0 0 0 2.583 4.71L25.98 31.6a7.087 7.087 0 0 0 1.82 3.039c1.066 1.061 5.472 5.161 9.118 5.161a4.287 4.287 0 0 0 2.282-.6l1.215-.76zM3.5 3.039c4.558 3.95 17.32 15.345 17.32 15.345l-2.583 2.431S6.989 8.052 3.19 3.342c-.151-.303.152-.455.304-.303zM22.333 19.9l6.837 6.837-2.583 2.433-6.837-6.685zm6.989 13.37a4.582 4.582 0 0 1-1.367-2.279l2.887-2.887a4.031 4.031 0 0 1 2.279 1.367 3.667 3.667 0 0 1 .608 2.583 5.7 5.7 0 0 0 .152 1.671 9.332 9.332 0 0 0 2.279 3.95c-1.976-.301-4.86-2.428-6.838-4.403z" fill="rgba(112,112,112,0.51)"/></svg>