<svg xmlns="http://www.w3.org/2000/svg" xmlns:xlink="http://www.w3.org/1999/xlink" width="78" height="68" viewBox="0 0 78 68">
  <defs>
    <clipPath id="clip-path">
      <rect id="Rectangle_24" data-name="Rectangle 24" width="145.317" height="95.477" fill="#b6b6b6"/>
    </clipPath>
    <clipPath id="clip-path-8">
      <rect id="Rectangle_32" data-name="Rectangle 32" width="145.317" height="95.477" transform="translate(0 0)" fill="#b6b6b6"/>
    </clipPath>
  </defs>
  <g id="media-icon" transform="translate(-1465 -590)">
    <g id="Group_43" data-name="Group 43" transform="translate(1441.4 557.3)" clip-path="url(#clip-path)">
      <path id="Path_75" data-name="Path 75" d="M1465.2,570.3a1.848,1.848,0,0,1,1.8,2,1.975,1.975,0,0,1-1.8,2,1.848,1.848,0,0,1-1.8-2,1.975,1.975,0,0,1,1.8-2" transform="translate(-1419.365 -544.279)" fill="#b6b6b6"/>
    </g>
    <g id="Group_44" data-name="Group 44" transform="translate(1441.4 557.3)" clip-path="url(#clip-path)">
      <path id="Path_76" data-name="Path 76" d="M1474.3,581.4a1.4,1.4,0,1,1-1.4,1.4,1.368,1.368,0,0,1,1.4-1.4" transform="translate(-1409.849 -533.161)" fill="#b6b6b6"/>
    </g>
    <g id="Group_45" data-name="Group 45" transform="translate(1441.4 557.3)" clip-path="url(#clip-path)">
      <path id="Path_77" data-name="Path 77" d="M1476.9,572a1.848,1.848,0,0,1,1.8,2,1.975,1.975,0,0,1-1.8,2,2.013,2.013,0,0,1,0-4" transform="translate(-1407.646 -542.576)" fill="#b6b6b6"/>
    </g>
    <g id="Group_46" data-name="Group 46" transform="translate(1441.4 557.3)" clip-path="url(#clip-path)">
      <path id="Path_78" data-name="Path 78" d="M1467.3,580.5a3,3,0,1,1-3,3,3.078,3.078,0,0,1,3-3" transform="translate(-1418.463 -534.063)" fill="#b6b6b6"/>
    </g>
    <g id="Group_47" data-name="Group 47" transform="translate(1441.4 557.3)" clip-path="url(#clip-path)">
      <path id="Path_79" data-name="Path 79" d="M1505.838,621.829H1460.8a2.482,2.482,0,0,1-2.4-2.6V588.8a2.482,2.482,0,0,1,2.4-2.6h31.025v2.6H1460.8v30.424h45.036V603.414h2.6v15.813a2.8,2.8,0,0,1-2.6,2.6" transform="translate(-1424.373 -528.354)" fill="#b6b6b6"/>
    </g>
    <g id="Group_49" data-name="Group 49" transform="translate(1441.4 557.3)" clip-path="url(#clip-path)">
      <path id="Path_81" data-name="Path 81" d="M1476.906,596.342l-7.206,4.4c-.4.4-1,0-1-.6v-8.607c0-.6.4-.8,1-.6l7.206,4.2C1477.507,595.541,1477.507,596.342,1476.906,596.342Z" transform="translate(-1414.056 -523.684)" fill="none" stroke="#b6b6b6" stroke-miterlimit="10" stroke-width="1.5"/>
    </g>
    <g id="Group_50" data-name="Group 50" transform="translate(1441.4 557.3)" clip-path="url(#clip-path-8)">
      <rect id="Rectangle_31" data-name="Rectangle 31" width="36.229" height="2.602" transform="translate(40.632 84.668)" fill="#b6b6b6"/>
    </g>
    <g id="Group_51" data-name="Group 51" transform="translate(1441.4 557.3)" clip-path="url(#clip-path-8)">
      <line id="Line_4" data-name="Line 4" y1="6.005" transform="translate(48.839 83.067)" fill="none" stroke="#b6b6b6" stroke-miterlimit="10" stroke-width="1.5"/>
    </g>
    <g id="Group_52" data-name="Group 52" transform="translate(1441.4 557.3)" clip-path="url(#clip-path)">
      <path id="Path_82" data-name="Path 82" d="M1497.217,615.033a19.109,19.109,0,0,1-10.408-3l-10.408,2,2.2-11.81a19.709,19.709,0,0,1-1.6-8.006,20.4,20.4,0,0,1,4.6-13.211l2,1.8a18.009,18.009,0,0,0-4,11.409,20.592,20.592,0,0,0,1.6,7.406l.2.4-1.6,8.807,7.806-1.6.4.2a17.278,17.278,0,0,0,9.407,2.8,18.219,18.219,0,0,0,0-36.429,16.863,16.863,0,0,0-7.006,1.4l-1-2.4a18.491,18.491,0,0,1,8.007-1.6,20.719,20.719,0,0,1,20.416,20.817c-.2,11.809-9.407,21.016-20.616,21.016" transform="translate(-1406.344 -541.374)" fill="#b6b6b6"/>
    </g>
    <g id="Group_53" data-name="Group 53" transform="translate(1441.4 557.3)" clip-path="url(#clip-path)">
      <path id="Path_83" data-name="Path 83" d="M1480,578.4a31.206,31.206,0,0,1,4-3.2" transform="translate(-1402.738 -539.371)" fill="#b6b6b6"/>
    </g>
    <g id="Group_54" data-name="Group 54" transform="translate(1441.4 557.3)" clip-path="url(#clip-path)">
      <path id="Path_84" data-name="Path 84" d="M1481.4,579.8l-1.8-1.8a23.977,23.977,0,0,1,4.2-3.4l1.4,2.2a21.009,21.009,0,0,0-3.8,3" transform="translate(-1403.139 -539.972)" fill="#b6b6b6"/>
    </g>
    <g id="Group_55" data-name="Group 55" transform="translate(1441.4 557.3)" clip-path="url(#clip-path)">
      <path id="Path_85" data-name="Path 85" d="M1497.013,599.818a2.8,2.8,0,1,1,2.8-2.8,2.736,2.736,0,0,1-2.8,2.8m-11.409-7.606a2.8,2.8,0,1,1,2.8-2.8,2.862,2.862,0,0,1-2.8,2.8m11.409-13.01a2.8,2.8,0,1,1-2.8,2.8,2.863,2.863,0,0,1,2.8-2.8m0,13.611a4.215,4.215,0,0,0-2.6,1l-5-3.4c0-.4.2-.6.2-1v-.8l5-3.4a3.692,3.692,0,0,0,2.4,1,4.208,4.208,0,1,0-4-4.2,1.806,1.806,0,0,0,.2,1l-5,3.2a4.215,4.215,0,0,0-2.6-1,4.063,4.063,0,0,0-4,4.2,3.975,3.975,0,0,0,6.605,3.2l5,3.4c0,.4-.2.6-.2,1a4.191,4.191,0,0,0,4,4.2,4.208,4.208,0,0,0,0-8.406" transform="translate(-1401.136 -536.767)" fill="#b6b6b6"/>
    </g>
  </g>
</svg>
