<svg xmlns="http://www.w3.org/2000/svg" width="78" height="68"><defs><clipPath id="a"><path data-name="Rectangle 24" fill="#b6b6b6" d="M0 0h145.317v95.477H0z"/></clipPath><clipPath id="b"><path data-name="Rectangle 32" fill="#b6b6b6" d="M0 0h145.317v95.477H0z"/></clipPath></defs><g data-name="Group 43" clip-path="url(#a)" transform="translate(-23.6 -32.7)"><path data-name="Path 75" d="M45.835 26.021a1.848 1.848 0 0 1 1.8 2 1.975 1.975 0 0 1-1.8 2 1.848 1.848 0 0 1-1.8-2 1.975 1.975 0 0 1 1.8-2" fill="#b6b6b6"/></g><g data-name="Group 44" clip-path="url(#a)" transform="translate(-23.6 -32.7)"><path data-name="Path 76" d="M64.451 48.239a1.4 1.4 0 1 1-1.4 1.4 1.368 1.368 0 0 1 1.4-1.4" fill="#b6b6b6"/></g><g data-name="Group 45" clip-path="url(#a)" transform="translate(-23.6 -32.7)"><path data-name="Path 77" d="M69.254 29.424a1.848 1.848 0 0 1 1.8 2 1.975 1.975 0 0 1-1.8 2 2.013 2.013 0 0 1 0-4" fill="#b6b6b6"/></g><g data-name="Group 46" clip-path="url(#a)" transform="translate(-23.6 -32.7)"><path data-name="Path 78" d="M48.837 46.437a3 3 0 1 1-3 3 3.078 3.078 0 0 1 3-3" fill="#b6b6b6"/></g><g data-name="Group 47" clip-path="url(#a)" transform="translate(-23.6 -32.7)"><path data-name="Path 79" d="M81.465 93.475H36.427a2.482 2.482 0 0 1-2.4-2.6V60.446a2.482 2.482 0 0 1 2.4-2.6h31.025v2.6H36.427V90.87h45.036V75.06h2.6v15.813a2.8 2.8 0 0 1-2.6 2.6" fill="#b6b6b6"/></g><g data-name="Group 49" clip-path="url(#a)" transform="translate(-23.6 -32.7)"><path data-name="Path 81" d="M62.85 72.658l-7.206 4.4c-.4.4-1 0-1-.6v-8.607c0-.6.4-.8 1-.6l7.206 4.2c.601.406.601 1.207 0 1.207z" fill="none" stroke="#b6b6b6" stroke-miterlimit="10" stroke-width="1.5"/></g><g data-name="Group 50" clip-path="url(#b)" transform="translate(-23.6 -32.7)"><path data-name="Rectangle 31" fill="#b6b6b6" d="M40.632 84.668h36.229v2.602H40.632z"/></g><g data-name="Group 51" clip-path="url(#b)" transform="translate(-23.6 -32.7)"><path data-name="Line 4" fill="none" stroke="#b6b6b6" stroke-miterlimit="10" stroke-width="1.5" d="M48.839 89.072v-6.005"/></g><g data-name="Group 52" clip-path="url(#a)" transform="translate(-23.6 -32.7)"><path data-name="Path 82" d="M90.873 73.659a19.109 19.109 0 0 1-10.408-3l-10.408 2 2.2-11.81a19.709 19.709 0 0 1-1.6-8.006 20.4 20.4 0 0 1 4.6-13.211l2 1.8a18.009 18.009 0 0 0-4 11.409 20.592 20.592 0 0 0 1.6 7.406l.2.4-1.6 8.807 7.806-1.6.4.2a17.278 17.278 0 0 0 9.407 2.8 18.219 18.219 0 0 0 0-36.429 16.863 16.863 0 0 0-7.006 1.4l-1-2.4a18.491 18.491 0 0 1 8.007-1.6 20.719 20.719 0 0 1 20.416 20.817c-.2 11.809-9.407 21.016-20.616 21.016" fill="#b6b6b6"/></g><g data-name="Group 53" clip-path="url(#a)" transform="translate(-23.6 -32.7)"><path data-name="Path 83" d="M77.262 39.029a31.206 31.206 0 0 1 4-3.2" fill="#b6b6b6"/></g><g data-name="Group 54" clip-path="url(#a)" transform="translate(-23.6 -32.7)"><path data-name="Path 84" d="M78.261 39.828l-1.8-1.8a23.977 23.977 0 0 1 4.2-3.4l1.4 2.2a21.009 21.009 0 0 0-3.8 3" fill="#b6b6b6"/></g><g data-name="Group 55" clip-path="url(#a)" transform="translate(-23.6 -32.7)"><path data-name="Path 85" d="M95.877 63.051a2.8 2.8 0 1 1 2.8-2.8 2.736 2.736 0 0 1-2.8 2.8m-11.409-7.606a2.8 2.8 0 1 1 2.8-2.8 2.862 2.862 0 0 1-2.8 2.8m11.409-13.01a2.8 2.8 0 1 1-2.8 2.8 2.863 2.863 0 0 1 2.8-2.8m0 13.611a4.215 4.215 0 0 0-2.6 1l-5-3.4c0-.4.2-.6.2-1v-.8l5-3.4a3.692 3.692 0 0 0 2.4 1 4.208 4.208 0 1 0-4-4.2 1.806 1.806 0 0 0 .2 1l-5 3.2a4.215 4.215 0 0 0-2.6-1 4.063 4.063 0 0 0-4 4.2 3.975 3.975 0 0 0 6.605 3.2l5 3.4c0 .4-.2.6-.2 1a4.191 4.191 0 0 0 4 4.2 4.208 4.208 0 0 0 0-8.406" fill="#b6b6b6"/></g></svg>