<svg xmlns="http://www.w3.org/2000/svg" width="134" height="19" viewBox="0 0 134 19"><g><g><path fill="#eb5b13" d="M123.608 0c.275 0 .525.069.75.206.225.138.394.325.506.563l2.175 4.518 5.007.732c.25.037.475.137.675.3.2.162.343.368.43.618a1.349 1.349 0 0 1-.337 1.37l-3.656 3.655.844 5.082c.05.25.022.493-.085.731a1.398 1.398 0 0 1-.478.581c-.125.088-.256.15-.393.188a1.562 1.562 0 0 1-.75.018 1.256 1.256 0 0 1-.338-.13l-4.35-2.345-4.369 2.344c-.1.063-.206.106-.318.131a1.552 1.552 0 0 1-.76-.018 1.398 1.398 0 0 1-.862-.769 1.182 1.182 0 0 1-.085-.731l.844-5.082-3.656-3.656a1.349 1.349 0 0 1-.337-1.369c.087-.237.23-.44.43-.609.2-.169.426-.272.676-.31l5.006-.73 2.175-4.52c.112-.237.281-.424.506-.562a1.41 1.41 0 0 1 .75-.206z"/></g><g><path fill="#eb5b13" d="M95.108 0c.275 0 .525.069.75.206.225.138.394.325.506.563l2.175 4.518 5.007.732c.25.037.475.137.675.3.2.162.343.368.43.618a1.349 1.349 0 0 1-.337 1.37l-3.656 3.655.844 5.082c.05.25.022.493-.085.731a1.398 1.398 0 0 1-.478.581c-.125.088-.256.15-.393.188a1.562 1.562 0 0 1-.75.018 1.256 1.256 0 0 1-.338-.13l-4.35-2.345-4.369 2.344c-.1.063-.206.106-.318.131a1.552 1.552 0 0 1-.76-.018 1.398 1.398 0 0 1-.862-.769 1.182 1.182 0 0 1-.085-.731l.844-5.082-3.656-3.656a1.349 1.349 0 0 1-.337-1.369c.087-.237.23-.44.43-.609.2-.169.426-.272.676-.31l5.006-.73 2.175-4.52c.112-.237.281-.424.506-.562a1.41 1.41 0 0 1 .75-.206z"/></g><g><path fill="#eb5b13" d="M66.608 0c.275 0 .525.069.75.206.225.138.394.325.506.563l2.175 4.518 5.007.732c.25.037.475.137.675.3.2.162.343.368.43.618a1.349 1.349 0 0 1-.337 1.37l-3.656 3.655.844 5.082c.05.25.022.493-.085.731a1.398 1.398 0 0 1-.478.581c-.125.088-.256.15-.393.188a1.562 1.562 0 0 1-.75.018 1.256 1.256 0 0 1-.338-.13l-4.35-2.345-4.369 2.344c-.1.063-.206.106-.318.131a1.552 1.552 0 0 1-.76-.018 1.398 1.398 0 0 1-.862-.769 1.182 1.182 0 0 1-.085-.731l.844-5.082-3.656-3.656a1.349 1.349 0 0 1-.338-1.369c.088-.237.232-.44.432-.609.2-.169.425-.272.675-.31l5.006-.73 2.175-4.52c.112-.237.281-.424.506-.562a1.41 1.41 0 0 1 .75-.206z"/></g><g><path fill="#eb5b13" d="M38.108 0c.275 0 .525.069.75.206.225.138.394.325.506.563l2.175 4.518 5.007.732c.25.037.475.137.675.3.2.162.343.368.43.618a1.349 1.349 0 0 1-.337 1.37l-3.656 3.655.844 5.082c.05.25.022.493-.085.731a1.398 1.398 0 0 1-.478.581c-.125.088-.256.15-.393.188a1.562 1.562 0 0 1-.75.018 1.256 1.256 0 0 1-.338-.13l-4.35-2.345-4.369 2.344c-.1.063-.206.106-.318.131a1.552 1.552 0 0 1-.76-.018 1.398 1.398 0 0 1-.862-.769 1.182 1.182 0 0 1-.085-.731l.844-5.082-3.656-3.656a1.349 1.349 0 0 1-.337-1.369c.087-.237.23-.44.43-.609.2-.169.426-.272.676-.31l5.006-.73 2.175-4.52c.112-.237.281-.424.506-.562a1.41 1.41 0 0 1 .75-.206z"/></g><g><path fill="#eb5b13" d="M9.608 0c.275 0 .525.069.75.206.225.138.394.325.506.563l2.175 4.518 5.007.732c.25.037.475.137.675.3.2.162.343.368.43.618a1.349 1.349 0 0 1-.337 1.37l-3.656 3.655.844 5.082c.05.25.022.493-.085.731a1.398 1.398 0 0 1-.478.581c-.125.088-.256.15-.393.188a1.562 1.562 0 0 1-.75.018 1.256 1.256 0 0 1-.338-.13l-4.35-2.345-4.369 2.344c-.1.063-.206.106-.318.131a1.552 1.552 0 0 1-.76-.018 1.398 1.398 0 0 1-.863-.769 1.182 1.182 0 0 1-.084-.731l.844-5.082L.402 8.306a1.349 1.349 0 0 1-.338-1.369c.088-.237.232-.44.432-.609.2-.169.425-.272.675-.31l5.006-.73L8.352.767c.112-.237.281-.424.506-.562A1.41 1.41 0 0 1 9.608 0z"/></g></g></svg>