<svg id="strategy-icon" xmlns="http://www.w3.org/2000/svg" width="64.632" height="62.841" viewBox="0 0 64.632 62.841">
  <g id="XMLID_764_" transform="translate(17.912 14.479)">
    <circle id="Ellipse_1" data-name="Ellipse 1" cx="1.194" cy="1.194" r="1.194" transform="translate(0)" fill="#b6b6b6"/>
  </g>
  <g id="XMLID_781_" transform="translate(53.139 41.795)">
    <circle id="Ellipse_2" data-name="Ellipse 2" cx="0.746" cy="0.746" r="0.746" fill="#b6b6b6"/>
  </g>
  <g id="XMLID_782_" transform="translate(60.453 47.915)">
    <circle id="Ellipse_3" data-name="Ellipse 3" cx="1.343" cy="1.343" r="1.343" fill="#b6b6b6"/>
  </g>
  <g id="XMLID_783_" transform="translate(51.348 55.229)">
    <circle id="Ellipse_4" data-name="Ellipse 4" cx="1.642" cy="1.642" r="1.642" fill="#b6b6b6"/>
  </g>
  <g id="XMLID_779_" transform="translate(19.106 2.388)">
    <circle id="Ellipse_5" data-name="Ellipse 5" cx="1.493" cy="1.493" r="1.493" fill="#b6b6b6"/>
  </g>
  <g id="XMLID_780_" transform="translate(5.971 4.926)">
    <circle id="Ellipse_6" data-name="Ellipse 6" cx="1.94" cy="1.94" r="1.94" fill="#b6b6b6"/>
  </g>
  <path id="Path_88" data-name="Path 88" d="M44.75,11A20.934,20.934,0,0,0,24.3,27.867l2.239.448a15.49,15.49,0,0,1,1.642-4.627h5.224a37.84,37.84,0,0,0-.6,4.329l2.239.149a20.028,20.028,0,0,1,.746-4.478h8.06v7.165H42.809v2.239h1.045v.746h2.239v-.746h9.553a28.558,28.558,0,0,1-.9,7.165H50.72v2.09H54a31.221,31.221,0,0,1-1.642,4.478l2.09.9a34.556,34.556,0,0,0,1.94-5.523h4.03a19.483,19.483,0,0,1-6.568,5.971l1.045,1.94A20.327,20.327,0,0,0,65.647,31.9,20.959,20.959,0,0,0,44.75,11ZM57.586,30.7a36.379,36.379,0,0,0-.746-7.165h4.627a19.663,19.663,0,0,1,1.94,7.165Zm2.538-9.255H56.243a30.065,30.065,0,0,0-1.94-5.523A15.874,15.874,0,0,1,60.124,21.449Zm-14.33-8.21a19.181,19.181,0,0,1,5.075,1.045,25.842,25.842,0,0,1,2.985,7.165h-8.06Zm-16.569,8.21a17.265,17.265,0,0,1,6.717-5.971A38.72,38.72,0,0,0,33.7,21.449Zm6.866,0a31.413,31.413,0,0,1,3.135-7.314,13.868,13.868,0,0,1,4.329-.746v8.06Zm9.7,2.239h8.657a52.173,52.173,0,0,1,.9,7.165H45.794V23.688Zm10.9,16.419a38.918,38.918,0,0,0,.746-7.165h5.821a17.107,17.107,0,0,1-1.94,7.165Z" transform="translate(-1.014 -11)" fill="#b6b6b6"/>
  <g id="XMLID_1_" transform="translate(12.24 24.181)">
    <g id="Group_56" data-name="Group 56" transform="translate(0)">
      <path id="Path_89" data-name="Path 89" d="M33.021,59.442A16.149,16.149,0,0,1,16.9,43.321a17.433,17.433,0,0,1,2.388-8.508l1.94,1.194a14.3,14.3,0,0,0-2.09,7.314A13.733,13.733,0,1,0,32.872,29.588c-3.135,0-5.075.3-7.463,2.09l-1.343-1.791C26.9,27.648,29.438,27.2,33.021,27.2a16.121,16.121,0,1,1,0,32.242Z" transform="translate(-16.9 -27.2)" fill="#b6b6b6"/>
    </g>
  </g>
  <g id="XMLID_767_" transform="translate(23.136 35.078)">
    <path id="Path_90" data-name="Path 90" d="M29.424,44.949A5.192,5.192,0,0,1,24.2,39.724h2.239a2.994,2.994,0,0,0,2.985,2.985,2.87,2.87,0,0,0,2.836-2.985,2.967,2.967,0,0,0-2.836-2.985V34.5a5.227,5.227,0,0,1,0,10.449Z" transform="translate(-24.2 -34.5)" fill="#b6b6b6"/>
  </g>
  <g id="XMLID_757_" transform="translate(8.657 26.271)">
    <path id="Path_91" data-name="Path 91" d="M16.44,32.929,14.5,31.884A14.27,14.27,0,0,1,16.739,28.6l1.642,1.642A12.419,12.419,0,0,0,16.44,32.929Z" transform="translate(-14.5 -28.6)" fill="#b6b6b6"/>
  </g>
  <g id="XMLID_758_" transform="translate(5.971 32.242)">
    <path id="Path_92" data-name="Path 92" d="M14.939,38.72,12.7,38.571A24.93,24.93,0,0,1,14.043,32.6l2.09.746A26,26,0,0,0,14.939,38.72Z" transform="translate(-12.7 -32.6)" fill="#b6b6b6"/>
  </g>
  <path id="Path_93" data-name="Path 93" d="M57.529,45.39A22.456,22.456,0,0,0,35.139,23,23.313,23.313,0,0,0,22.3,27.03l1.343,1.791A20.383,20.383,0,0,1,35.289,25.09a20.151,20.151,0,1,1,0,40.3c-11.046,0-20.45-8.807-20.45-20H12.6a22.677,22.677,0,0,0,7.613,16.867l-3.433,3.732v.448a1.316,1.316,0,0,0,1.194,1.343H23.2l1.94-2.09a21.717,21.717,0,0,0,9.852,2.239,22.448,22.448,0,0,0,10-2.388l1.94,2.239h5.224a1.219,1.219,0,0,0,1.194-1.343v-.448l-3.582-3.881A21.716,21.716,0,0,0,57.529,45.39ZM22.3,65.541h-2.09l1.642-1.791c.448.3.746.6,1.194.9Zm27.764,0h-2.09l-1.045-1.194a8.279,8.279,0,0,0,1.194-.9Z" transform="translate(-6.779 -5.088)" fill="#b6b6b6"/>
  <path id="Path_94" data-name="Path 94" d="M37.061,36.861A10.887,10.887,0,0,0,30.493,39.1l-9.105-8.956V24.323H19.149v3.582l-.3-.3V21.338H16.611v4.03l-.448-.448V18.8H13.924v3.881h0l-1.642,1.642.149.149H8.7v2.09h6.12l.3.3H11.387V29.1h5.971l.448.448H14.223v2.239h5.821l8.807,8.807a10.7,10.7,0,0,0,8.21,17.613,10.673,10.673,0,0,0,0-21.345Zm0,19.106a8.5,8.5,0,0,1-8.508-8.508,8.816,8.816,0,0,1,1.791-5.224L36.613,48.5l1.642-1.642-6.269-6.12A8.144,8.144,0,0,1,36.911,39.1a8.435,8.435,0,0,1,.149,16.867Z" transform="translate(-8.7 -7.157)" fill="#b6b6b6"/>
</svg>
