<svg xmlns="http://www.w3.org/2000/svg" width="64.632" height="62.841"><circle data-name="Ellipse 1" cx="1.194" cy="1.194" r="1.194" transform="translate(17.912 14.479)" fill="#b6b6b6"/><circle data-name="Ellipse 2" cx=".746" cy=".746" r=".746" fill="#b6b6b6" transform="translate(53.139 41.795)"/><circle data-name="Ellipse 3" cx="1.343" cy="1.343" r="1.343" fill="#b6b6b6" transform="translate(60.453 47.915)"/><circle data-name="Ellipse 4" cx="1.642" cy="1.642" r="1.642" fill="#b6b6b6" transform="translate(51.348 55.229)"/><circle data-name="Ellipse 5" cx="1.493" cy="1.493" r="1.493" fill="#b6b6b6" transform="translate(19.106 2.388)"/><circle data-name="Ellipse 6" cx="1.94" cy="1.94" r="1.94" fill="#b6b6b6" transform="translate(5.971 4.926)"/><path data-name="Path 88" d="M43.736 0a20.934 20.934 0 0 0-20.45 16.867l2.239.448a15.49 15.49 0 0 1 1.642-4.627h5.224a37.84 37.84 0 0 0-.6 4.329l2.239.149a20.028 20.028 0 0 1 .746-4.478h8.06v7.165h-1.041v2.239h1.045v.746h2.239v-.746h9.553a28.558 28.558 0 0 1-.9 7.165h-4.026v2.09h3.28a31.221 31.221 0 0 1-1.642 4.478l2.09.9a34.556 34.556 0 0 0 1.94-5.523h4.03a19.483 19.483 0 0 1-6.568 5.971l1.045 1.94A20.327 20.327 0 0 0 64.633 20.9 20.959 20.959 0 0 0 43.736 0zm12.836 19.7a36.379 36.379 0 0 0-.746-7.165h4.627a19.663 19.663 0 0 1 1.94 7.165zm2.538-9.255h-3.881a30.065 30.065 0 0 0-1.94-5.523 15.874 15.874 0 0 1 5.821 5.527zm-14.33-8.21a19.181 19.181 0 0 1 5.075 1.045 25.842 25.842 0 0 1 2.985 7.165h-8.06zm-16.569 8.21a17.265 17.265 0 0 1 6.717-5.971 38.72 38.72 0 0 0-2.242 5.975zm6.866 0a31.413 31.413 0 0 1 3.135-7.314 13.868 13.868 0 0 1 4.329-.746v8.06zm9.7 2.239h8.657a52.173 52.173 0 0 1 .9 7.165H44.78v-7.161zm10.9 16.419a38.918 38.918 0 0 0 .746-7.165h5.821a17.107 17.107 0 0 1-1.94 7.165z" fill="#b6b6b6"/><g data-name="Group 56"><path data-name="Path 89" d="M28.361 56.423A16.149 16.149 0 0 1 12.24 40.302a17.433 17.433 0 0 1 2.388-8.508l1.94 1.194a14.3 14.3 0 0 0-2.09 7.314 13.733 13.733 0 1 0 13.734-13.733c-3.135 0-5.075.3-7.463 2.09l-1.343-1.791c2.834-2.239 5.372-2.687 8.955-2.687a16.121 16.121 0 1 1 0 32.242z" fill="#b6b6b6"/></g><path data-name="Path 90" d="M28.36 45.527a5.192 5.192 0 0 1-5.224-5.225h2.239a2.994 2.994 0 0 0 2.985 2.985 2.87 2.87 0 0 0 2.836-2.985 2.967 2.967 0 0 0-2.836-2.985v-2.239a5.227 5.227 0 0 1 0 10.449z" fill="#b6b6b6"/><path data-name="Path 91" d="M10.597 30.6l-1.94-1.045a14.27 14.27 0 0 1 2.239-3.284l1.642 1.642a12.419 12.419 0 0 0-1.941 2.687z" fill="#b6b6b6"/><path data-name="Path 92" d="M8.21 38.362l-2.239-.149a24.93 24.93 0 0 1 1.343-5.971l2.09.746a26 26 0 0 0-1.194 5.374z" fill="#b6b6b6"/><path data-name="Path 93" d="M50.75 40.302a22.456 22.456 0 0 0-22.39-22.39 23.313 23.313 0 0 0-12.839 4.03l1.343 1.791a20.383 20.383 0 0 1 11.646-3.731 20.151 20.151 0 1 1 0 40.3c-11.046 0-20.45-8.807-20.45-20H5.821a22.677 22.677 0 0 0 7.613 16.867l-3.433 3.732v.448a1.316 1.316 0 0 0 1.194 1.343h5.226l1.94-2.09a21.717 21.717 0 0 0 9.852 2.239 22.448 22.448 0 0 0 10-2.388l1.94 2.239h5.224a1.219 1.219 0 0 0 1.194-1.343v-.448l-3.582-3.881a21.716 21.716 0 0 0 7.761-16.718zM15.521 60.453h-2.09l1.642-1.791c.448.3.746.6 1.194.9zm27.764 0h-2.09l-1.045-1.194a8.279 8.279 0 0 0 1.194-.9z" fill="#b6b6b6"/><path data-name="Path 94" d="M28.361 29.704a10.887 10.887 0 0 0-6.568 2.239l-9.105-8.956v-5.821h-2.239v3.582l-.3-.3v-6.267H7.911v4.03l-.448-.448v-6.12H5.224v3.881l-1.642 1.642.149.149H0v2.09h6.12l.3.3H2.687v2.238h5.971l.448.448H5.523v2.239h5.821l8.807 8.807a10.7 10.7 0 0 0 8.21 17.613 10.673 10.673 0 0 0 0-21.345zm0 19.106a8.5 8.5 0 0 1-8.508-8.508 8.816 8.816 0 0 1 1.791-5.224l6.269 6.265 1.642-1.642-6.269-6.12a8.144 8.144 0 0 1 4.925-1.638 8.435 8.435 0 0 1 .149 16.867z" fill="#b6b6b6"/></svg>